<?xml version="1.0" encoding="utf-8"?>
<!-- Generator: Adobe Illustrator 26.3.1, SVG Export Plug-In . SVG Version: 6.00 Build 0)  -->
<svg version="1.1" id="Layer_1" xmlns="http://www.w3.org/2000/svg" xmlns:xlink="http://www.w3.org/1999/xlink" x="0px" y="0px"
	 viewBox="0 0 258.1 62" style="enable-background:new 0 0 258.1 62;" xml:space="preserve">
<style type="text/css">
	.st0{fill:#0F8DA9;}
	.st1{fill:#FFFFFF;}
	.st2{fill:#C2CC25;}
	.st3{fill:#96A833;}
</style>
<g>
	<g>
		<path class="st0" d="M124.1,42.8c-0.5,0-0.9-0.1-1.2-0.4c-0.3-0.2-0.6-0.5-0.7-0.9c-0.1-0.4-0.2-1.7-0.2-3.9V26.5h4.9v-5.6H122
			V10.7l-7.3,7.3v2.9h-3l-5.6,5.6h8.5v12c0,2.5,0.2,4.2,0.3,5.1c0.2,1.2,0.6,2.1,1.1,2.8c0.5,0.7,1.3,1.3,2.3,1.7
			c1,0.4,2.2,0.7,3.5,0.7c2.1,0,4-0.4,5.7-1.1l-0.6-5.6C125.7,42.5,124.7,42.8,124.1,42.8z"/>
		<path class="st0" d="M107.6,42.8c-0.5,0-0.9-0.1-1.2-0.4c-0.3-0.2-0.5-0.5-0.6-0.9c-0.1-0.4-0.1-1.7-0.1-3.9V27l-7.3,7.3v4.2
			c0,2.5,0.1,4.2,0.2,5.1c0.2,1.2,0.5,2.1,1,2.8c0.5,0.7,1.3,1.3,2.3,1.7c1,0.4,2.2,0.7,3.5,0.7c2.1,0,4-0.4,5.7-1.1l-0.6-5.6
			C109.3,42.5,108.3,42.8,107.6,42.8z"/>
		<polygon class="st0" points="84.5,48.1 91.7,48.1 91.7,40.9 		"/>
		<path class="st0" d="M153.5,39.2l0.1-8.4c0-3.1-0.3-5.3-1-6.4c-0.6-1.2-1.7-2.1-3.3-2.9c-1.6-0.8-4-1.1-7.2-1.1
			c-3.5,0-6.2,0.6-8,1.9c-1.8,1.3-3.1,3.2-3.8,5.8l6.5,1.2c0.4-1.3,1-2.1,1.7-2.7c0.7-0.5,1.7-0.8,3-0.8c1.9,0,3.2,0.3,3.9,0.9
			c0.7,0.6,1,1.6,1,3v0.7c-1.3,0.5-3.6,1.1-7,1.8c-2.5,0.5-4.4,1-5.7,1.7c-1.3,0.6-2.4,1.6-3.1,2.8c-0.7,1.2-1.1,2.6-1.1,4.1
			c0,2.3,0.8,4.2,2.4,5.8c1.6,1.5,3.8,2.3,6.6,2.3c1.6,0,3.1-0.3,4.5-0.9c1.4-0.6,2.7-1.5,4-2.7c0.1,0.1,0.1,0.4,0.3,0.8
			c0.3,0.9,0.5,1.6,0.7,2.1h7.1c-0.6-1.3-1.1-2.5-1.3-3.7C153.6,43.3,153.5,41.6,153.5,39.2z M146.5,36.5c0,1.7-0.1,2.9-0.3,3.5
			c-0.3,0.9-0.8,1.7-1.7,2.4c-1.2,0.9-2.4,1.3-3.7,1.3c-1.2,0-2.1-0.4-2.9-1.1c-0.8-0.7-1.1-1.6-1.1-2.6c0-1,0.5-1.9,1.4-2.5
			c0.6-0.4,1.9-0.8,3.9-1.3c2-0.4,3.5-0.8,4.4-1.1V36.5z"/>
		<path class="st0" d="M206.4,32.4c0,3.9-0.2,6.3-0.5,7.3c-0.4,1-1,1.8-2,2.5c-1,0.7-2.1,1-3.3,1c-1.1,0-2-0.3-2.7-0.8
			c-0.7-0.5-1.2-1.2-1.4-2.1c-0.3-0.9-0.4-3.2-0.4-7V20.9h-7.2v17.2c0,2.6,0.3,4.6,1,6c0.7,1.5,1.7,2.6,3.2,3.4
			c1.5,0.8,3.1,1.2,4.9,1.2c1.8,0,3.5-0.4,5.1-1.3c1.6-0.8,2.9-2,3.9-3.4v4.1h6.7V20.9h-7.2V32.4z"/>
		<path class="st0" d="M239.4,34.3c-1.5-1.3-4.2-2.3-8-3.2c-3.8-0.9-6.1-1.5-6.7-2c-0.5-0.4-0.7-0.8-0.7-1.3c0-0.6,0.3-1.1,0.8-1.5
			c0.8-0.5,2.2-0.8,4.1-0.8c1.5,0,2.7,0.3,3.5,0.8c0.8,0.6,1.4,1.4,1.7,2.4l6.8-1.3c-0.7-2.4-1.9-4.2-3.7-5.4
			c-1.8-1.2-4.6-1.8-8.3-1.8c-3.9,0-6.8,0.8-8.7,2.4c-1.9,1.6-2.8,3.6-2.8,5.9c0,2.6,1.1,4.7,3.2,6.1c1.6,1.1,5.2,2.2,11.1,3.5
			c1.2,0.3,2.1,0.6,2.4,0.9c0.3,0.4,0.5,0.8,0.5,1.4c0,0.8-0.3,1.4-0.9,1.9c-0.9,0.7-2.3,1-4.2,1c-1.7,0-3-0.4-3.9-1.1
			c-0.9-0.7-1.6-1.8-1.9-3.2l-7.2,1.1c0.7,2.6,2.1,4.6,4.2,6.1c2.2,1.5,5.1,2.3,8.8,2.3c4.1,0,7.2-0.9,9.3-2.7
			c2.1-1.8,3.1-3.9,3.1-6.4C241.6,37.3,240.9,35.5,239.4,34.3z"/>
		<rect x="178" y="20.9" class="st0" width="7.2" height="27.2"/>
		<rect x="178" y="10.5" class="st0" width="7.2" height="6.7"/>
		<path class="st0" d="M167.8,21.2c-0.9,0.6-1.9,1.8-3.1,3.6v-3.9H158v27.2h7.2v-8.4c0-4.6,0.2-7.7,0.6-9.1c0.4-1.5,1-2.5,1.7-3
			c0.7-0.6,1.6-0.8,2.6-0.8c1,0,2.2,0.4,3.4,1.2l2.2-6.3c-1.5-0.9-3.1-1.4-4.7-1.4C169.8,20.3,168.7,20.6,167.8,21.2z"/>
	</g>
	<g>
		<rect x="84.5" y="10.5" class="st1" width="7.2" height="6.7"/>
		<polygon class="st1" points="98.4,34.3 105.6,27 105.6,26.5 106.2,26.5 111.7,20.9 105.6,20.9 105.6,10.7 98.4,18 98.4,20.9 
			95.2,20.9 95.2,26.5 98.4,26.5 		"/>
		<polygon class="st1" points="91.7,40.9 91.7,20.9 84.5,20.9 84.5,48.1 84.5,48.1 		"/>
		<path class="st1" d="M23.2,34.3c-1.5-1.3-4.2-2.3-8-3.2c-3.8-0.9-6.1-1.5-6.7-2c-0.5-0.4-0.7-0.8-0.7-1.3c0-0.6,0.3-1.1,0.8-1.5
			c0.8-0.5,2.2-0.8,4.1-0.8c1.5,0,2.7,0.3,3.5,0.8c0.8,0.6,1.4,1.4,1.7,2.4l6.8-1.3c-0.7-2.4-1.9-4.2-3.7-5.4
			c-1.8-1.2-4.6-1.8-8.3-1.8c-3.9,0-6.8,0.8-8.7,2.4C1.9,24.3,1,26.3,1,28.6c0,2.6,1.1,4.7,3.2,6.1c1.6,1.1,5.2,2.2,11.1,3.5
			c1.2,0.3,2.1,0.6,2.4,0.9c0.3,0.4,0.5,0.8,0.5,1.4c0,0.8-0.3,1.4-0.9,1.9c-0.9,0.7-2.3,1-4.2,1c-1.7,0-3-0.4-3.9-1.1
			c-0.9-0.7-1.6-1.8-1.9-3.2L0,40.4c0.7,2.6,2.1,4.6,4.2,6.1c2.2,1.5,5.1,2.3,8.8,2.3c4.1,0,7.2-0.9,9.3-2.7
			c2.1-1.8,3.1-3.9,3.1-6.4C25.4,37.3,24.7,35.5,23.2,34.3z"/>
		<path class="st1" d="M51.7,39.2l0.1-8.4c0-3.1-0.3-5.3-1-6.4c-0.6-1.2-1.7-2.1-3.3-2.9c-1.6-0.8-4-1.1-7.2-1.1
			c-3.5,0-6.2,0.6-8,1.9c-1.8,1.3-3.1,3.2-3.8,5.8l6.5,1.2c0.4-1.3,1-2.1,1.7-2.7c0.7-0.5,1.7-0.8,3-0.8c1.9,0,3.2,0.3,3.9,0.9
			c0.7,0.6,1,1.6,1,3v0.7c-1.3,0.5-3.6,1.1-7,1.8c-2.5,0.5-4.4,1-5.7,1.7c-1.3,0.6-2.4,1.6-3.1,2.8c-0.7,1.2-1.1,2.6-1.1,4.1
			c0,2.3,0.8,4.2,2.4,5.8c1.6,1.5,3.8,2.3,6.6,2.3c1.6,0,3.1-0.3,4.5-0.9c1.4-0.6,2.7-1.5,3.9-2.7c0.1,0.1,0.1,0.4,0.3,0.8
			c0.3,0.9,0.5,1.6,0.7,2.1h7.1c-0.6-1.3-1.1-2.5-1.3-3.7C51.8,43.3,51.7,41.6,51.7,39.2z M44.7,36.5c0,1.7-0.1,2.9-0.3,3.5
			c-0.3,0.9-0.8,1.7-1.7,2.4c-1.2,0.9-2.4,1.3-3.7,1.3c-1.2,0-2.1-0.4-2.9-1.1C35.4,41.8,35,41,35,39.9c0-1,0.5-1.9,1.4-2.5
			c0.6-0.4,1.9-0.8,3.9-1.3c2-0.4,3.5-0.8,4.4-1.1V36.5z"/>
		<path class="st1" d="M69.8,43.6c-3.4-0.2-4.2-0.3-5.3-0.3c-0.7,0-1.4,0-1.4-0.9c0-0.8,0.7-0.9,1.5-0.9c0.8,0,1.5,0,3.6,0
			c0,0,0,0,0,0c0,0,0,0,0,0c0,0,0.1,0,0.1,0l0,0c7.6,0,12.6-4.1,12.6-10.3c0-2-0.5-3.8-1.5-5.3h1.8v-5H68.6c-0.2,0-0.3,0-0.5,0
			c-7.6,0-12.7,4.1-12.7,10.3c0,3.6,1.7,6.5,4.5,8.3c-0.9,0.3-3.4,1.4-3.4,4.1c0,4.1,3.1,4.8,9.9,5.5c6.4,0.7,9.1,0.6,9.1,3.7
			c0,3.1-3.8,3.6-7.5,3.6c-3.7,0-6.5-1-6.5-4.4l-7.5,0c0,6.5,5.6,10.1,14,10.1c8.5,0,14-2.8,14-9.3C82.2,46.3,77.8,44.1,69.8,43.6z
			 M68.1,25.9c0.5,0,1.1,0.1,1.1,0.1c2.5,0.3,4.7,1.6,4.7,5c0,3.9-2.9,5.1-5.9,5.1c-2.9,0-5.8-1.2-5.8-5.1
			C62.3,27.1,65.2,25.9,68.1,25.9z"/>
	</g>
	<g>
		<g>
			<polygon class="st2" points="258.1,0 258.1,20.8 252,20.8 252,6.2 			"/>
		</g>
		<polygon class="st3" points="258.1,0 237.3,0 237.3,6.2 252,6.2 		"/>
	</g>
</g>
</svg>
